<svg width="20" height="20" viewBox="0 0 20 20" fill="none" xmlns="http://www.w3.org/2000/svg">
<g clip-path="url(#clip0_119_2422)">
<path d="M6.66667 1.66675V4.16675V1.66675ZM13.3333 1.66675V4.16675V1.66675ZM2.91667 7.57506H17.0833H2.91667ZM17.5 7.08341V14.1667C17.5 16.6667 16.25 18.3334 13.3333 18.3334H6.66667C3.75 18.3334 2.5 16.6667 2.5 14.1667V7.08341C2.5 4.58341 3.75 2.91675 6.66667 2.91675H13.3333C16.25 2.91675 17.5 4.58341 17.5 7.08341Z" stroke="#A2A2A8" stroke-width="1.5" stroke-miterlimit="10" stroke-linecap="round" stroke-linejoin="round"/>
<path d="M6.91187 13.9168H6.91935M13.0789 11.4167H13.0864H13.0789ZM13.0789 13.9168H13.0864H13.0789ZM9.99619 11.4167H10.0037H9.99619ZM9.99619 13.9168H10.0037H9.99619ZM6.91187 11.4167H6.91935H6.91187Z" stroke="#A2A2A8" stroke-width="1.5" stroke-linecap="round" stroke-linejoin="round"/>
</g>
<defs>
<clipPath id="clip0_119_2422">
<rect width="20" height="20" fill="white"/>
</clipPath>
</defs>
</svg>
