<svg width="17" height="17" viewBox="0 0 17 17" fill="none" xmlns="http://www.w3.org/2000/svg">
<path d="M15.0416 4.01478L10.2416 0.65645C8.93331 -0.260216 6.92497 -0.210216 5.66667 0.764784L1.49167 4.02312C0.658333 4.67312 0 6.00645 0 7.05641V12.8064C0 14.9314 1.725 16.6647 3.85 16.6647H12.8333C14.9583 16.6647 16.6833 14.9397 16.6833 12.8147V7.16474C16.6833 6.03978 15.9583 4.65645 15.0416 4.01478ZM8.96664 13.3314C8.96664 13.6731 8.68331 13.9564 8.34164 13.9564C7.99998 13.9564 7.71664 13.6731 7.71664 13.3314V10.8314C7.71664 10.4897 7.99998 10.2064 8.34164 10.2064C8.68331 10.2064 8.96664 10.4897 8.96664 10.8314V13.3314Z" fill="#292D32"/>
</svg>
