<svg width="17" height="17" viewBox="0 0 17 17" fill="none" xmlns="http://www.w3.org/2000/svg">
<path d="M11.825 0H4.84167C1.80833 0 0 1.80833 0 4.84167V11.8167C0 14.8583 1.80833 16.6667 4.84167 16.6667H11.8167C14.85 16.6667 16.6583 14.8583 16.6583 11.825V4.84167C16.6667 1.80833 14.8583 0 11.825 0ZM12.7167 6.63333L10.7917 9.11667C10.55 9.425 10.2083 9.625 9.81667 9.66667C9.425 9.71667 9.04167 9.60833 8.73333 9.36667L7.20833 8.16667C7.15 8.11667 7.08333 8.11667 7.05 8.125C7.01667 8.125 6.95833 8.14167 6.90833 8.20833L4.925 10.7833C4.8 10.9417 4.61667 11.025 4.43333 11.025C4.3 11.025 4.16667 10.9833 4.05 10.8917C3.775 10.6833 3.725 10.2917 3.93333 10.0167L5.91667 7.44167C6.15833 7.13333 6.5 6.93333 6.89167 6.88333C7.275 6.83333 7.66667 6.94167 7.975 7.18333L9.5 8.38333C9.55833 8.43333 9.61667 8.43333 9.65833 8.425C9.69167 8.425 9.75 8.40833 9.8 8.34167L11.725 5.85833C11.9333 5.58333 12.3333 5.53333 12.6 5.75C12.875 5.975 12.925 6.36667 12.7167 6.63333Z" fill="#292D32"/>
</svg>
